<svg id="visual" viewBox="0 0 900 600" width="900" height="600" xmlns="http://www.w3.org/2000/svg" xmlns:xlink="http://www.w3.org/1999/xlink" version="1.1"><rect x="0" y="0" width="900" height="600" fill="#DBEAFE"></rect><path d="M0 385L21.5 387C43 389 86 393 128.8 393.3C171.7 393.7 214.3 390.3 257.2 388.7C300 387 343 387 385.8 379.8C428.7 372.7 471.3 358.3 514.2 345.7C557 333 600 322 642.8 328.2C685.7 334.3 728.3 357.7 771.2 355.5C814 353.3 857 325.7 878.5 311.8L900 298L900 601L878.5 601C857 601 814 601 771.2 601C728.3 601 685.7 601 642.8 601C600 601 557 601 514.2 601C471.3 601 428.7 601 385.8 601C343 601 300 601 257.2 601C214.3 601 171.7 601 128.8 601C86 601 43 601 21.5 601L0 601Z" fill="#bfdbfe"></path><path d="M0 407L21.5 396.2C43 385.3 86 363.7 128.8 362.7C171.7 361.7 214.3 381.3 257.2 393C300 404.7 343 408.3 385.8 403C428.7 397.7 471.3 383.3 514.2 375.8C557 368.3 600 367.7 642.8 373.7C685.7 379.7 728.3 392.3 771.2 389.2C814 386 857 367 878.5 357.5L900 348L900 601L878.5 601C857 601 814 601 771.2 601C728.3 601 685.7 601 642.8 601C600 601 557 601 514.2 601C471.3 601 428.7 601 385.8 601C343 601 300 601 257.2 601C214.3 601 171.7 601 128.8 601C86 601 43 601 21.5 601L0 601Z" fill="#b9d8fe"></path><path d="M0 445L21.5 434.7C43 424.3 86 403.7 128.8 403.8C171.7 404 214.3 425 257.2 429.3C300 433.7 343 421.3 385.8 410.3C428.7 399.3 471.3 389.7 514.2 387.8C557 386 600 392 642.8 399.5C685.7 407 728.3 416 771.2 420C814 424 857 423 878.5 422.5L900 422L900 601L878.5 601C857 601 814 601 771.2 601C728.3 601 685.7 601 642.8 601C600 601 557 601 514.2 601C471.3 601 428.7 601 385.8 601C343 601 300 601 257.2 601C214.3 601 171.7 601 128.8 601C86 601 43 601 21.5 601L0 601Z" fill="#b3d5fe"></path><path d="M0 433L21.5 433.5C43 434 86 435 128.8 437C171.7 439 214.3 442 257.2 447C300 452 343 459 385.8 458.8C428.7 458.7 471.3 451.3 514.2 446.8C557 442.3 600 440.7 642.8 444.5C685.7 448.3 728.3 457.7 771.2 454.8C814 452 857 437 878.5 429.5L900 422L900 601L878.5 601C857 601 814 601 771.2 601C728.3 601 685.7 601 642.8 601C600 601 557 601 514.2 601C471.3 601 428.7 601 385.8 601C343 601 300 601 257.2 601C214.3 601 171.7 601 128.8 601C86 601 43 601 21.5 601L0 601Z" fill="#add2fe"></path><path d="M0 483L21.5 475.5C43 468 86 453 128.8 455C171.7 457 214.3 476 257.2 480.7C300 485.3 343 475.7 385.8 475.5C428.7 475.3 471.3 484.7 514.2 489.5C557 494.3 600 494.7 642.8 494.8C685.7 495 728.3 495 771.2 490.5C814 486 857 477 878.5 472.5L900 468L900 601L878.5 601C857 601 814 601 771.2 601C728.3 601 685.7 601 642.8 601C600 601 557 601 514.2 601C471.3 601 428.7 601 385.8 601C343 601 300 601 257.2 601C214.3 601 171.7 601 128.8 601C86 601 43 601 21.5 601L0 601Z" fill="#a7cefe"></path><path d="M0 480L21.5 486.3C43 492.7 86 505.3 128.8 508C171.7 510.7 214.3 503.3 257.2 503.3C300 503.3 343 510.7 385.8 515C428.7 519.3 471.3 520.7 514.2 518.8C557 517 600 512 642.8 505.2C685.7 498.3 728.3 489.7 771.2 487.7C814 485.7 857 490.3 878.5 492.7L900 495L900 601L878.5 601C857 601 814 601 771.2 601C728.3 601 685.7 601 642.8 601C600 601 557 601 514.2 601C471.3 601 428.7 601 385.8 601C343 601 300 601 257.2 601C214.3 601 171.7 601 128.8 601C86 601 43 601 21.5 601L0 601Z" fill="#a0cbfe"></path><path d="M0 534L21.5 536C43 538 86 542 128.8 545.3C171.7 548.7 214.3 551.3 257.2 545C300 538.7 343 523.3 385.8 515.2C428.7 507 471.3 506 514.2 508.8C557 511.7 600 518.3 642.8 520C685.7 521.7 728.3 518.3 771.2 520.8C814 523.3 857 531.7 878.5 535.8L900 540L900 601L878.5 601C857 601 814 601 771.2 601C728.3 601 685.7 601 642.8 601C600 601 557 601 514.2 601C471.3 601 428.7 601 385.8 601C343 601 300 601 257.2 601C214.3 601 171.7 601 128.8 601C86 601 43 601 21.5 601L0 601Z" fill="#9ac8fd"></path><path d="M0 569L21.5 568.7C43 568.3 86 567.7 128.8 564.8C171.7 562 214.3 557 257.2 558.2C300 559.3 343 566.7 385.8 564.8C428.7 563 471.3 552 514.2 547.2C557 542.3 600 543.7 642.8 548.8C685.7 554 728.3 563 771.2 562.3C814 561.7 857 551.3 878.5 546.2L900 541L900 601L878.5 601C857 601 814 601 771.2 601C728.3 601 685.7 601 642.8 601C600 601 557 601 514.2 601C471.3 601 428.7 601 385.8 601C343 601 300 601 257.2 601C214.3 601 171.7 601 128.8 601C86 601 43 601 21.5 601L0 601Z" fill="#93c5fd"></path></svg>